<mxfile host="app.diagrams.net" modified="2024-05-21T12:01:19.894Z" agent="Mozilla/5.0 (Windows NT 10.0; Win64; x64; rv:125.0) Gecko/20100101 Firefox/125.0" version="24.3.1" etag="3HdITuGEr3GblQrM5tGZ" type="github">
  <diagram name="Page-1" id="7yZsyfK81csuNFCbcj1A">
    <mxGraphModel>
      <root>
        <mxCell id="0" />
        <mxCell id="1" parent="0" />
      </root>
    </mxGraphModel>
  </diagram>
</mxfile>
